<svg xmlns="http://www.w3.org/2000/svg" xmlns:xlink="http://www.w3.org/1999/xlink" width="1920" height="1080" viewBox="0 0 1920 1080"><defs><style>.a{fill:url(#a);}.b{opacity:0.64;clip-path:url(#b);}.c{opacity:0.05;}</style><linearGradient id="a" x1="0.683" y1="1.312" x2="0.198" y2="-0.244" gradientUnits="objectBoundingBox"><stop offset="0" stop-color="#fff" stop-opacity="0"/><stop offset="0.495" stop-color="#fff"/><stop offset="1" stop-color="#fff" stop-opacity="0"/></linearGradient><clipPath id="b"><rect class="a" width="1920" height="1080"/></clipPath></defs><g class="b"><g class="c" transform="translate(1806 800)"><g transform="translate(0 106)"><path d="M152.963,215H33.063a33.036,33.036,0,0,1-23.269-9.543,32.273,32.273,0,0,1,0-46.315,33.074,33.074,0,0,1,17.823-9.1q0-.221,0-.445a43.649,43.649,0,0,1,43.6-43.6,43.157,43.157,0,0,1,24.777,7.762,43.669,43.669,0,0,1,12.567,13.459,32.69,32.69,0,0,1,49.464,22.763,33.063,33.063,0,0,1,18.211,9.159,32.273,32.273,0,0,1,0,46.315A33.038,33.038,0,0,1,152.963,215Zm-119.9-54.5a21.8,21.8,0,1,0,0,43.6h119.9a21.8,21.8,0,1,0,0-43.6h-5.45v-5.45a21.777,21.777,0,0,0-37.058-15.539l-5.866,5.762-3.021-7.648A32.656,32.656,0,0,0,38.513,149.6a29.518,29.518,0,0,0,.416,4.134l.976,6.766Z" transform="translate(0 -106)"/></g></g><g class="c" transform="translate(1790.754 485.135)"><g transform="translate(0 106)"><path d="M106.275,181.73h-83.3A22.953,22.953,0,0,1,6.805,175.1a22.422,22.422,0,0,1,0-32.178,22.979,22.979,0,0,1,12.383-6.32q0-.154,0-.309A30.327,30.327,0,0,1,49.477,106a29.984,29.984,0,0,1,17.215,5.393,30.34,30.34,0,0,1,8.731,9.351,22.712,22.712,0,0,1,34.366,15.815,22.971,22.971,0,0,1,12.653,6.363,22.423,22.423,0,0,1,0,32.178A22.954,22.954,0,0,1,106.275,181.73Zm-83.3-37.865a15.148,15.148,0,1,0,0,30.292h83.3a15.148,15.148,0,1,0,0-30.292h-3.787v-3.787a15.13,15.13,0,0,0-25.747-10.8l-4.076,4-2.1-5.313a22.688,22.688,0,0,0-43.809,8.32,20.509,20.509,0,0,0,.289,2.872l.678,4.7Z" transform="translate(0 -106)"/></g></g><g class="c" transform="translate(1361.754 823.135)"><g transform="translate(0 106)"><path d="M106.275,181.73h-83.3A22.953,22.953,0,0,1,6.805,175.1a22.422,22.422,0,0,1,0-32.178,22.979,22.979,0,0,1,12.383-6.32q0-.154,0-.309A30.327,30.327,0,0,1,49.477,106a29.984,29.984,0,0,1,17.215,5.393,30.34,30.34,0,0,1,8.731,9.351,22.712,22.712,0,0,1,34.366,15.815,22.971,22.971,0,0,1,12.653,6.363,22.423,22.423,0,0,1,0,32.178A22.954,22.954,0,0,1,106.275,181.73Zm-83.3-37.865a15.148,15.148,0,1,0,0,30.292h83.3a15.148,15.148,0,1,0,0-30.292h-3.787v-3.787a15.13,15.13,0,0,0-25.747-10.8l-4.076,4-2.1-5.313a22.688,22.688,0,0,0-43.809,8.32,20.509,20.509,0,0,0,.289,2.872l.678,4.7Z" transform="translate(0 -106)"/></g></g><g class="c" transform="translate(1393 625.285)"><g transform="translate(0 106)"><path d="M66.559,153.429H14.387a14.375,14.375,0,0,1-10.125-4.152,14.043,14.043,0,0,1,0-20.153,14.391,14.391,0,0,1,7.755-3.958q0-.1,0-.194A18.993,18.993,0,0,1,30.987,106a18.779,18.779,0,0,1,10.781,3.377,19,19,0,0,1,5.468,5.856,14.224,14.224,0,0,1,21.523,9.9,14.387,14.387,0,0,1,7.924,3.985,14.043,14.043,0,0,1,0,20.153A14.376,14.376,0,0,1,66.559,153.429ZM14.387,129.714a9.487,9.487,0,1,0,0,18.972H66.559a9.487,9.487,0,1,0,0-18.972H64.187v-2.371a9.476,9.476,0,0,0-16.125-6.761l-2.553,2.507-1.315-3.328a14.209,14.209,0,0,0-27.437,5.211,12.844,12.844,0,0,0,.181,1.8l.425,2.944Z" transform="translate(0 -106)"/></g></g><g class="c" transform="translate(1624.123 680.521)"><path d="M90.58,131.214A18.74,18.74,0,0,0,62.23,118.16a24.969,24.969,0,0,0-46.4,12.831c0,.085,0,.174,0,.259a18.727,18.727,0,0,0,3.121,37.228H87.679a18.729,18.729,0,0,0,2.9-37.265Z" transform="translate(0 0)"/></g><g class="c" transform="translate(1032.123 760.656)"><path d="M90.58,131.214A18.74,18.74,0,0,0,62.23,118.16a24.969,24.969,0,0,0-46.4,12.831c0,.085,0,.174,0,.259a18.727,18.727,0,0,0,3.121,37.228H87.679a18.729,18.729,0,0,0,2.9-37.265Z" transform="translate(0 0)"/></g><g class="c" transform="translate(1555.629 511)"><path d="M40.183,117.185a8.314,8.314,0,0,0-12.577-5.791,11.077,11.077,0,0,0-20.585,5.692c0,.038,0,.077,0,.115a8.308,8.308,0,0,0,1.384,16.515H38.9a8.309,8.309,0,0,0,1.287-16.531Z" transform="translate(0 0)"/></g><g class="c" transform="translate(861.629 960.142)"><path d="M40.183,117.185a8.314,8.314,0,0,0-12.577-5.791,11.077,11.077,0,0,0-20.585,5.692c0,.038,0,.077,0,.115a8.308,8.308,0,0,0,1.384,16.515H38.9a8.309,8.309,0,0,0,1.287-16.531Z" transform="translate(0 0)"/></g><g transform="translate(1506 88.135)"><g class="c" transform="translate(444.247 314.865)"><g transform="translate(0)"><path d="M152.963,215H33.063a33.036,33.036,0,0,1-23.269-9.543,32.273,32.273,0,0,1,0-46.315,33.074,33.074,0,0,1,17.823-9.1q0-.221,0-.445a43.65,43.65,0,0,1,43.6-43.6,43.157,43.157,0,0,1,24.777,7.762,43.669,43.669,0,0,1,12.567,13.459,32.69,32.69,0,0,1,49.464,22.763,33.063,33.063,0,0,1,18.211,9.159,32.273,32.273,0,0,1,0,46.315A33.038,33.038,0,0,1,152.963,215Zm-119.9-54.5a21.8,21.8,0,1,0,0,43.6h119.9a21.8,21.8,0,1,0,0-43.6h-5.45v-5.45a21.777,21.777,0,0,0-37.058-15.539l-5.866,5.762-3.021-7.648A32.656,32.656,0,0,0,38.513,149.6a29.518,29.518,0,0,0,.416,4.134l.976,6.766Z" transform="translate(0 -106)"/></g></g><g class="c" transform="translate(429 0)"><g transform="translate(0)"><path d="M106.275,181.73h-83.3A22.953,22.953,0,0,1,6.805,175.1a22.422,22.422,0,0,1,0-32.178,22.979,22.979,0,0,1,12.383-6.32q0-.154,0-.309A30.327,30.327,0,0,1,49.477,106a29.984,29.984,0,0,1,17.215,5.393,30.34,30.34,0,0,1,8.731,9.351,22.712,22.712,0,0,1,34.367,15.815,22.971,22.971,0,0,1,12.653,6.363,22.423,22.423,0,0,1,0,32.178A22.954,22.954,0,0,1,106.275,181.73Zm-83.3-37.865a15.148,15.148,0,1,0,0,30.292h83.3a15.148,15.148,0,1,0,0-30.292h-3.787v-3.787a15.13,15.13,0,0,0-25.747-10.8l-4.076,4-2.1-5.313a22.689,22.689,0,0,0-43.809,8.32,20.509,20.509,0,0,0,.289,2.872l.678,4.7Z" transform="translate(0 -106)"/></g></g><g class="c" transform="translate(0 338)"><path d="M106.275,181.73h-83.3A22.953,22.953,0,0,1,6.805,175.1a22.422,22.422,0,0,1,0-32.178,22.979,22.979,0,0,1,12.383-6.32q0-.154,0-.309A30.327,30.327,0,0,1,49.477,106a29.984,29.984,0,0,1,17.215,5.393,30.34,30.34,0,0,1,8.731,9.351,22.712,22.712,0,0,1,34.367,15.815,22.971,22.971,0,0,1,12.653,6.363,22.423,22.423,0,0,1,0,32.178A22.954,22.954,0,0,1,106.275,181.73Zm-83.3-37.865a15.148,15.148,0,1,0,0,30.292h83.3a15.148,15.148,0,1,0,0-30.292h-3.787v-3.787a15.13,15.13,0,0,0-25.747-10.8l-4.076,4-2.1-5.313a22.689,22.689,0,0,0-43.809,8.32,20.509,20.509,0,0,0,.289,2.872l.678,4.7Z" transform="translate(0 -106)"/></g><g class="c" transform="translate(88.28 -136.434)"><path d="M106.275,181.73h-83.3A22.953,22.953,0,0,1,6.805,175.1a22.422,22.422,0,0,1,0-32.178,22.979,22.979,0,0,1,12.383-6.32q0-.154,0-.309A30.327,30.327,0,0,1,49.477,106a29.984,29.984,0,0,1,17.215,5.393,30.34,30.34,0,0,1,8.731,9.351,22.712,22.712,0,0,1,34.367,15.815,22.971,22.971,0,0,1,12.653,6.363,22.423,22.423,0,0,1,0,32.178A22.954,22.954,0,0,1,106.275,181.73Zm-83.3-37.865a15.148,15.148,0,1,0,0,30.292h83.3a15.148,15.148,0,1,0,0-30.292h-3.787v-3.787a15.13,15.13,0,0,0-25.747-10.8l-4.076,4-2.1-5.313a22.689,22.689,0,0,0-43.809,8.32,20.509,20.509,0,0,0,.289,2.872l.678,4.7Z" transform="translate(0 -106)"/></g><g class="c" transform="translate(31.246 140.15)"><g transform="translate(0)"><path d="M66.559,153.429H14.387a14.375,14.375,0,0,1-10.125-4.152,14.043,14.043,0,0,1,0-20.153,14.392,14.392,0,0,1,7.755-3.958q0-.1,0-.194A18.993,18.993,0,0,1,30.987,106a18.779,18.779,0,0,1,10.781,3.377,19,19,0,0,1,5.468,5.856,14.224,14.224,0,0,1,21.523,9.9,14.387,14.387,0,0,1,7.924,3.985,14.043,14.043,0,0,1,0,20.153A14.376,14.376,0,0,1,66.559,153.429ZM14.387,129.714a9.487,9.487,0,1,0,0,18.972H66.559a9.487,9.487,0,1,0,0-18.972H64.187v-2.371a9.476,9.476,0,0,0-16.125-6.761l-2.553,2.507-1.315-3.328a14.209,14.209,0,0,0-27.437,5.211,12.843,12.843,0,0,0,.181,1.8l.425,2.944Z" transform="translate(0 -106)"/></g></g><g class="c" transform="translate(262.369 195.387)"><path d="M90.58,131.214A18.74,18.74,0,0,0,62.23,118.16a24.969,24.969,0,0,0-46.4,12.831c0,.085,0,.174,0,.259a18.727,18.727,0,0,0,3.121,37.228H87.679a18.729,18.729,0,0,0,2.9-37.265Z" transform="translate(0 -106)"/></g><g class="c" transform="translate(193.875 25.865)"><path d="M40.183,117.185a8.314,8.314,0,0,0-12.577-5.791,11.077,11.077,0,0,0-20.585,5.692c0,.038,0,.077,0,.115a8.308,8.308,0,0,0,1.384,16.515H38.9a8.309,8.309,0,0,0,1.287-16.531Z" transform="translate(0 -106)"/></g><g class="c" transform="translate(-71.125 10.148)"><path d="M40.183,117.185a8.314,8.314,0,0,0-12.577-5.791,11.077,11.077,0,0,0-20.585,5.692c0,.038,0,.077,0,.115a8.308,8.308,0,0,0,1.384,16.515H38.9a8.309,8.309,0,0,0,1.287-16.531Z" transform="translate(0 -106)"/></g></g><g transform="translate(58 600.135)"><g class="c" transform="translate(444.247 314.865)"><g transform="translate(0)"><path d="M152.963,215H33.063a33.036,33.036,0,0,1-23.269-9.543,32.273,32.273,0,0,1,0-46.315,33.074,33.074,0,0,1,17.823-9.1q0-.221,0-.445a43.65,43.65,0,0,1,43.6-43.6,43.157,43.157,0,0,1,24.777,7.762,43.669,43.669,0,0,1,12.567,13.459,32.69,32.69,0,0,1,49.464,22.763,33.063,33.063,0,0,1,18.211,9.159,32.273,32.273,0,0,1,0,46.315A33.038,33.038,0,0,1,152.963,215Zm-119.9-54.5a21.8,21.8,0,1,0,0,43.6h119.9a21.8,21.8,0,1,0,0-43.6h-5.45v-5.45a21.777,21.777,0,0,0-37.058-15.539l-5.866,5.762-3.021-7.648A32.656,32.656,0,0,0,38.513,149.6a29.518,29.518,0,0,0,.416,4.134l.976,6.766Z" transform="translate(0 -106)"/></g></g><g class="c" transform="translate(429 0)"><g transform="translate(0)"><path d="M106.275,181.73h-83.3A22.953,22.953,0,0,1,6.805,175.1a22.422,22.422,0,0,1,0-32.178,22.979,22.979,0,0,1,12.383-6.32q0-.154,0-.309A30.327,30.327,0,0,1,49.477,106a29.984,29.984,0,0,1,17.215,5.393,30.34,30.34,0,0,1,8.731,9.351,22.712,22.712,0,0,1,34.367,15.815,22.971,22.971,0,0,1,12.653,6.363,22.423,22.423,0,0,1,0,32.178A22.954,22.954,0,0,1,106.275,181.73Zm-83.3-37.865a15.148,15.148,0,1,0,0,30.292h83.3a15.148,15.148,0,1,0,0-30.292h-3.787v-3.787a15.13,15.13,0,0,0-25.747-10.8l-4.076,4-2.1-5.313a22.689,22.689,0,0,0-43.809,8.32,20.509,20.509,0,0,0,.289,2.872l.678,4.7Z" transform="translate(0 -106)"/></g></g><g class="c" transform="translate(0 338)"><path d="M106.275,181.73h-83.3A22.953,22.953,0,0,1,6.805,175.1a22.422,22.422,0,0,1,0-32.178,22.979,22.979,0,0,1,12.383-6.32q0-.154,0-.309A30.327,30.327,0,0,1,49.477,106a29.984,29.984,0,0,1,17.215,5.393,30.34,30.34,0,0,1,8.731,9.351,22.712,22.712,0,0,1,34.367,15.815,22.971,22.971,0,0,1,12.653,6.363,22.423,22.423,0,0,1,0,32.178A22.954,22.954,0,0,1,106.275,181.73Zm-83.3-37.865a15.148,15.148,0,1,0,0,30.292h83.3a15.148,15.148,0,1,0,0-30.292h-3.787v-3.787a15.13,15.13,0,0,0-25.747-10.8l-4.076,4-2.1-5.313a22.689,22.689,0,0,0-43.809,8.32,20.509,20.509,0,0,0,.289,2.872l.678,4.7Z" transform="translate(0 -106)"/></g><g class="c" transform="translate(88.28 -136.434)"><path d="M106.275,181.73h-83.3A22.953,22.953,0,0,1,6.805,175.1a22.422,22.422,0,0,1,0-32.178,22.979,22.979,0,0,1,12.383-6.32q0-.154,0-.309A30.327,30.327,0,0,1,49.477,106a29.984,29.984,0,0,1,17.215,5.393,30.34,30.34,0,0,1,8.731,9.351,22.712,22.712,0,0,1,34.367,15.815,22.971,22.971,0,0,1,12.653,6.363,22.423,22.423,0,0,1,0,32.178A22.954,22.954,0,0,1,106.275,181.73Zm-83.3-37.865a15.148,15.148,0,1,0,0,30.292h83.3a15.148,15.148,0,1,0,0-30.292h-3.787v-3.787a15.13,15.13,0,0,0-25.747-10.8l-4.076,4-2.1-5.313a22.689,22.689,0,0,0-43.809,8.32,20.509,20.509,0,0,0,.289,2.872l.678,4.7Z" transform="translate(0 -106)"/></g><g class="c" transform="translate(31.246 140.15)"><g transform="translate(0)"><path d="M66.559,153.429H14.387a14.375,14.375,0,0,1-10.125-4.152,14.043,14.043,0,0,1,0-20.153,14.392,14.392,0,0,1,7.755-3.958q0-.1,0-.194A18.993,18.993,0,0,1,30.987,106a18.779,18.779,0,0,1,10.781,3.377,19,19,0,0,1,5.468,5.856,14.224,14.224,0,0,1,21.523,9.9,14.387,14.387,0,0,1,7.924,3.985,14.043,14.043,0,0,1,0,20.153A14.376,14.376,0,0,1,66.559,153.429ZM14.387,129.714a9.487,9.487,0,1,0,0,18.972H66.559a9.487,9.487,0,1,0,0-18.972H64.187v-2.371a9.476,9.476,0,0,0-16.125-6.761l-2.553,2.507-1.315-3.328a14.209,14.209,0,0,0-27.437,5.211,12.843,12.843,0,0,0,.181,1.8l.425,2.944Z" transform="translate(0 -106)"/></g></g><g class="c" transform="translate(262.369 195.387)"><path d="M90.58,131.214A18.74,18.74,0,0,0,62.23,118.16a24.969,24.969,0,0,0-46.4,12.831c0,.085,0,.174,0,.259a18.727,18.727,0,0,0,3.121,37.228H87.679a18.729,18.729,0,0,0,2.9-37.265Z" transform="translate(0 -106)"/></g><g class="c" transform="translate(193.875 25.865)"><path d="M40.183,117.185a8.314,8.314,0,0,0-12.577-5.791,11.077,11.077,0,0,0-20.585,5.692c0,.038,0,.077,0,.115a8.308,8.308,0,0,0,1.384,16.515H38.9a8.309,8.309,0,0,0,1.287-16.531Z" transform="translate(0 -106)"/></g><g class="c" transform="translate(-71.125 10.148)"><path d="M40.183,117.185a8.314,8.314,0,0,0-12.577-5.791,11.077,11.077,0,0,0-20.585,5.692c0,.038,0,.077,0,.115a8.308,8.308,0,0,0,1.384,16.515H38.9a8.309,8.309,0,0,0,1.287-16.531Z" transform="translate(0 -106)"/></g></g><g transform="translate(801 -66.865)"><g class="c" transform="translate(444.247 314.865)"><g transform="translate(0)"><path d="M152.963,215H33.063a33.036,33.036,0,0,1-23.269-9.543,32.273,32.273,0,0,1,0-46.315,33.074,33.074,0,0,1,17.823-9.1q0-.221,0-.445a43.65,43.65,0,0,1,43.6-43.6,43.157,43.157,0,0,1,24.777,7.762,43.669,43.669,0,0,1,12.567,13.459,32.69,32.69,0,0,1,49.464,22.763,33.063,33.063,0,0,1,18.211,9.159,32.273,32.273,0,0,1,0,46.315A33.038,33.038,0,0,1,152.963,215Zm-119.9-54.5a21.8,21.8,0,1,0,0,43.6h119.9a21.8,21.8,0,1,0,0-43.6h-5.45v-5.45a21.777,21.777,0,0,0-37.058-15.539l-5.866,5.762-3.021-7.648A32.656,32.656,0,0,0,38.513,149.6a29.518,29.518,0,0,0,.416,4.134l.976,6.766Z" transform="translate(0 -106)"/></g></g><g class="c" transform="translate(429 0)"><g transform="translate(0)"><path d="M106.275,181.73h-83.3A22.953,22.953,0,0,1,6.805,175.1a22.422,22.422,0,0,1,0-32.178,22.979,22.979,0,0,1,12.383-6.32q0-.154,0-.309A30.327,30.327,0,0,1,49.477,106a29.984,29.984,0,0,1,17.215,5.393,30.34,30.34,0,0,1,8.731,9.351,22.712,22.712,0,0,1,34.367,15.815,22.971,22.971,0,0,1,12.653,6.363,22.423,22.423,0,0,1,0,32.178A22.954,22.954,0,0,1,106.275,181.73Zm-83.3-37.865a15.148,15.148,0,1,0,0,30.292h83.3a15.148,15.148,0,1,0,0-30.292h-3.787v-3.787a15.13,15.13,0,0,0-25.747-10.8l-4.076,4-2.1-5.313a22.689,22.689,0,0,0-43.809,8.32,20.509,20.509,0,0,0,.289,2.872l.678,4.7Z" transform="translate(0 -106)"/></g></g><g class="c" transform="translate(0 338)"><path d="M106.275,181.73h-83.3A22.953,22.953,0,0,1,6.805,175.1a22.422,22.422,0,0,1,0-32.178,22.979,22.979,0,0,1,12.383-6.32q0-.154,0-.309A30.327,30.327,0,0,1,49.477,106a29.984,29.984,0,0,1,17.215,5.393,30.34,30.34,0,0,1,8.731,9.351,22.712,22.712,0,0,1,34.367,15.815,22.971,22.971,0,0,1,12.653,6.363,22.423,22.423,0,0,1,0,32.178A22.954,22.954,0,0,1,106.275,181.73Zm-83.3-37.865a15.148,15.148,0,1,0,0,30.292h83.3a15.148,15.148,0,1,0,0-30.292h-3.787v-3.787a15.13,15.13,0,0,0-25.747-10.8l-4.076,4-2.1-5.313a22.689,22.689,0,0,0-43.809,8.32,20.509,20.509,0,0,0,.289,2.872l.678,4.7Z" transform="translate(0 -106)"/></g><g class="c" transform="translate(31.246 140.15)"><g transform="translate(0)"><path d="M66.559,153.429H14.387a14.375,14.375,0,0,1-10.125-4.152,14.043,14.043,0,0,1,0-20.153,14.392,14.392,0,0,1,7.755-3.958q0-.1,0-.194A18.993,18.993,0,0,1,30.987,106a18.779,18.779,0,0,1,10.781,3.377,19,19,0,0,1,5.468,5.856,14.224,14.224,0,0,1,21.523,9.9,14.387,14.387,0,0,1,7.924,3.985,14.043,14.043,0,0,1,0,20.153A14.376,14.376,0,0,1,66.559,153.429ZM14.387,129.714a9.487,9.487,0,1,0,0,18.972H66.559a9.487,9.487,0,1,0,0-18.972H64.187v-2.371a9.476,9.476,0,0,0-16.125-6.761l-2.553,2.507-1.315-3.328a14.209,14.209,0,0,0-27.437,5.211,12.843,12.843,0,0,0,.181,1.8l.425,2.944Z" transform="translate(0 -106)"/></g></g><g class="c" transform="translate(262.369 195.387)"><path d="M90.58,131.214A18.74,18.74,0,0,0,62.23,118.16a24.969,24.969,0,0,0-46.4,12.831c0,.085,0,.174,0,.259a18.727,18.727,0,0,0,3.121,37.228H87.679a18.729,18.729,0,0,0,2.9-37.265Z" transform="translate(0 -106)"/></g><g class="c" transform="translate(193.875 25.865)"><path d="M40.183,117.185a8.314,8.314,0,0,0-12.577-5.791,11.077,11.077,0,0,0-20.585,5.692c0,.038,0,.077,0,.115a8.308,8.308,0,0,0,1.384,16.515H38.9a8.309,8.309,0,0,0,1.287-16.531Z" transform="translate(0 -106)"/></g></g><g transform="translate(-13.125 -142.865)"><g class="c" transform="translate(444.247 314.865)"><g transform="translate(0)"><path d="M152.963,215H33.063a33.036,33.036,0,0,1-23.269-9.543,32.273,32.273,0,0,1,0-46.315,33.074,33.074,0,0,1,17.823-9.1q0-.221,0-.445a43.65,43.65,0,0,1,43.6-43.6,43.157,43.157,0,0,1,24.777,7.762,43.669,43.669,0,0,1,12.567,13.459,32.69,32.69,0,0,1,49.464,22.763,33.063,33.063,0,0,1,18.211,9.159,32.273,32.273,0,0,1,0,46.315A33.038,33.038,0,0,1,152.963,215Zm-119.9-54.5a21.8,21.8,0,1,0,0,43.6h119.9a21.8,21.8,0,1,0,0-43.6h-5.45v-5.45a21.777,21.777,0,0,0-37.058-15.539l-5.866,5.762-3.021-7.648A32.656,32.656,0,0,0,38.513,149.6a29.518,29.518,0,0,0,.416,4.134l.976,6.766Z" transform="translate(0 -106)"/></g></g><g class="c" transform="translate(429 0)"><g transform="translate(0)"><path d="M106.275,181.73h-83.3A22.953,22.953,0,0,1,6.805,175.1a22.422,22.422,0,0,1,0-32.178,22.979,22.979,0,0,1,12.383-6.32q0-.154,0-.309A30.327,30.327,0,0,1,49.477,106a29.984,29.984,0,0,1,17.215,5.393,30.34,30.34,0,0,1,8.731,9.351,22.712,22.712,0,0,1,34.367,15.815,22.971,22.971,0,0,1,12.653,6.363,22.423,22.423,0,0,1,0,32.178A22.954,22.954,0,0,1,106.275,181.73Zm-83.3-37.865a15.148,15.148,0,1,0,0,30.292h83.3a15.148,15.148,0,1,0,0-30.292h-3.787v-3.787a15.13,15.13,0,0,0-25.747-10.8l-4.076,4-2.1-5.313a22.689,22.689,0,0,0-43.809,8.32,20.509,20.509,0,0,0,.289,2.872l.678,4.7Z" transform="translate(0 -106)"/></g></g><g class="c" transform="translate(0 338)"><path d="M106.275,181.73h-83.3A22.953,22.953,0,0,1,6.805,175.1a22.422,22.422,0,0,1,0-32.178,22.979,22.979,0,0,1,12.383-6.32q0-.154,0-.309A30.327,30.327,0,0,1,49.477,106a29.984,29.984,0,0,1,17.215,5.393,30.34,30.34,0,0,1,8.731,9.351,22.712,22.712,0,0,1,34.367,15.815,22.971,22.971,0,0,1,12.653,6.363,22.423,22.423,0,0,1,0,32.178A22.954,22.954,0,0,1,106.275,181.73Zm-83.3-37.865a15.148,15.148,0,1,0,0,30.292h83.3a15.148,15.148,0,1,0,0-30.292h-3.787v-3.787a15.13,15.13,0,0,0-25.747-10.8l-4.076,4-2.1-5.313a22.689,22.689,0,0,0-43.809,8.32,20.509,20.509,0,0,0,.289,2.872l.678,4.7Z" transform="translate(0 -106)"/></g><g class="c" transform="translate(31.246 140.15)"><g transform="translate(0)"><path d="M66.559,153.429H14.387a14.375,14.375,0,0,1-10.125-4.152,14.043,14.043,0,0,1,0-20.153,14.392,14.392,0,0,1,7.755-3.958q0-.1,0-.194A18.993,18.993,0,0,1,30.987,106a18.779,18.779,0,0,1,10.781,3.377,19,19,0,0,1,5.468,5.856,14.224,14.224,0,0,1,21.523,9.9,14.387,14.387,0,0,1,7.924,3.985,14.043,14.043,0,0,1,0,20.153A14.376,14.376,0,0,1,66.559,153.429ZM14.387,129.714a9.487,9.487,0,1,0,0,18.972H66.559a9.487,9.487,0,1,0,0-18.972H64.187v-2.371a9.476,9.476,0,0,0-16.125-6.761l-2.553,2.507-1.315-3.328a14.209,14.209,0,0,0-27.437,5.211,12.843,12.843,0,0,0,.181,1.8l.425,2.944Z" transform="translate(0 -106)"/></g></g><g class="c" transform="translate(477.301 552.15)"><g transform="translate(0)"><path d="M66.559,153.429H14.387a14.375,14.375,0,0,1-10.125-4.152,14.043,14.043,0,0,1,0-20.153,14.392,14.392,0,0,1,7.755-3.958q0-.1,0-.194A18.993,18.993,0,0,1,30.987,106a18.779,18.779,0,0,1,10.781,3.377,19,19,0,0,1,5.468,5.856,14.224,14.224,0,0,1,21.523,9.9,14.387,14.387,0,0,1,7.924,3.985,14.043,14.043,0,0,1,0,20.153A14.376,14.376,0,0,1,66.559,153.429ZM14.387,129.714a9.487,9.487,0,1,0,0,18.972H66.559a9.487,9.487,0,1,0,0-18.972H64.187v-2.371a9.476,9.476,0,0,0-16.125-6.761l-2.553,2.507-1.315-3.328a14.209,14.209,0,0,0-27.437,5.211,12.843,12.843,0,0,0,.181,1.8l.425,2.944Z" transform="translate(0 -106)"/></g></g><g class="c" transform="translate(262.369 195.387)"><path d="M90.58,131.214A18.74,18.74,0,0,0,62.23,118.16a24.969,24.969,0,0,0-46.4,12.831c0,.085,0,.174,0,.259a18.727,18.727,0,0,0,3.121,37.228H87.679a18.729,18.729,0,0,0,2.9-37.265Z" transform="translate(0 -106)"/></g><g class="c" transform="translate(193.875 25.865)"><path d="M40.183,117.185a8.314,8.314,0,0,0-12.577-5.791,11.077,11.077,0,0,0-20.585,5.692c0,.038,0,.077,0,.115a8.308,8.308,0,0,0,1.384,16.515H38.9a8.309,8.309,0,0,0,1.287-16.531Z" transform="translate(0 -106)"/></g></g></g></svg>